/* XPM */
static char *f5ac7ce2861a4fecf8783a783280f161[] = {
/* columns rows colors chars-per-pixel */
"80 80 32 1 ",
"  c #F46A00",
". c #EE7200",
"X c #EF7D05",
"o c #EF7E09",
"O c #F17600",
"+ c #F07D05",
"@ c #F07E09",
"# c #EE7A15",
"$ c #EE8007",
"% c #EE810C",
"& c #F0800A",
"* c #ED8314",
"= c #ED8A13",
"- c #EC861A",
"; c #EC891D",
": c #EC8C24",
"> c #EB8E2A",
", c #EC9125",
"< c #E7902B",
"1 c #EC912C",
"2 c #EA9133",
"3 c #EE9836",
"4 c #EB963B",
"5 c #EB983D",
"6 c #E59C43",
"7 c #EA9A45",
"8 c #DDAA5E",
"9 c #E3A746",
"0 c #EAAB51",
"q c #EFB467",
"w c #E9B66A",
"e c None",
/* pixels */
"eeeeeeeeeeeeeeeeeeeeeeeeeeeeeeeeeeeeeeeeeeeeeeeeeeeeeeeeeeeeeeeeeeeeeeeeeeeeeeee",
"eeeeeeeeeeeeeeeeeeeeeeeeeeeeeeeeeeeeeeeeeeeeeeeeeeeeeeeeeeeeeeeeeeeeeeeeeeeeeeee",
"eeeeeeeeeeeeeeeeeeeeeeeeeeeeeeeeeeee>&>22>*,eeeeeeeeeeeeeeeeeeeeeeeeeeeeeeeeeeee",
"eeeeeeeeeeeeeeeeeeeeeeeeeeeeee7**ooXX@XOOXXOO&&%-2eeeeeeeeeeeeeeeeeeeeeeeeeeeeee",
"eeeeeeeeeeeeeeeeeeeeeeeeeee**XO@@@@@@@@@@@@$@@++@O@%*eeeeeeeeeeeeeeeeeeeeeeeeeee",
"eeeeeeeeeeeeeeeeeeeeeeee-%o@XXoXXoXX@@$X@XX@@&@&o$@X@o%-eeeeeeeeeeeeeeeeeeeeeeee",
"eeeeeeeeeeeeeeeeeeeeee-XXX@@&&o@@@@@OXOXXX@@X@$$@@@$@XXX@;eeeeeeeeeeeeeeeeeeeeee",
"eeeeeeeeeeeeeeeeeeee;&X@o&@ooX@@X$=**=<22>***%%O@@@Xo@&&oX@-eeeeeeeeeeeeeeeeeeee",
"eeeeeeeeeeeeeeeeeee*O$@Xoo@oXo**eeeeeeeeeeeeeeee*%oo@o&ooo@X*eeeeeeeeeeeeeeeeeee",
"eeeeeeeeeeeeeeeee&XX&@@@@X%@eeeeeeeeeeeeeeeeeeeeeeee@&XX@@o@XO&eeeeeeeeeeeeeeeee",
"eeeeeeeeeeeeeeee*XX@X@@X%-eeeeeeeeeeeeeeeeeeeeeeeeeeee-%OXX&&XX*eeeeeeeeeeeeeeee",
"eeeeeeeeeeeeee-o@ooo$@X:eeeeeeeeeeeeeeeeeeeeeeeeeeeeeeee>XX$o&&Xo-eeeeeeeeeeeeee",
"eeeeeeeeeeeee*o@@@@XX*eeeeeeeeeeeeeeeeeeeeeeeeeeeeeeeeeeee;XX&ooXX-eeeeeeeeeeeee",
"eeeeeeeeeeee*@X@@@XX*eeeeeeeeeeeeeeeeeeeeeeeeeeeeeeeeeeeeee*oX$o&XX*eeeeeeeeeeee",
"eeeeeeeeeee*X@o@oX;eeeeeeeeeeeeeeeeeeeeeeeeeeeeeeeeeeeeeeeeee-XXo@XX*eeeeeeeeeee",
"eeeeeeeeee*Xoo@o@XeeeeeeeeeeeeeeeeeeeeeeeeeeeeeeeeeeeeeeeeeeeeXo@@o@o*eeeeeeeeee",
"eeeeeeeee-oX@oXX*eeeeeeeeeeeeeeeeeeeeeeeeeeeeeeeeeeeeeeeeeeeeee*X&o@XX-eeeeeeeee",
"eeeeeeeeeX@@&Xo-eeeeeeeeeeeeeeeeeeeeeeeeeeeeeeeeeeeeeeeeeeeeeeee-o@&&$Xeeeeeeeee",
"eeeeeeee%@@&&X*eeeeeeeeeeeeeeeeeeeeeeeeeeeeeeeeeeeeeeeeeeeeeeeeee*X@@@@%eeeeeeee",
"eeeeeee*X&X&@oeeeeeeeeeeeeeeeeeeeeeeeeeeeeeeeeeeeeeeeeeeeeeeeeeeee%Xo@XX%eeeeeee",
"eeeeeee@@@@O-eeeeeeeeeeeeeeeeeeeeeeeeeeeeeeeeeeeeeeeeeeeeeeeeeeeeee-XXo@Xeeeeeee",
"eeeeeeX@@@X$eeeeeeeeeeeeeeeeeeeeeeeeeeeeeeeeeeeeeeeeeeeeeeeeeeeeeeeeX@o@ooeeeeee",
"eeeee;Xo$oX eeeeeeeeeeeeeeeeeeeeeeeeeeeeeeeeeeeeeeeeeeeeeeeeeeeeeeee#$@ooX;eeeee",
"eeeeeoXo@O9eeeeeeeeeeeeeeeeeeeeeeeeeeeeeeeeeeeeeeeeeeeeeeeeeeeeeeeeee=Xo@X@eeeee",
"eeee-X@@Xoeeeeeeeeeeeeeeeeeeeeeeeeeeeeeeeeeeeeeeeeeeeeeeeeeeeeeeeeeeee&@@&O*eeee",
"eeeeO@X&X-eeeeeeeeeeeeeeeeeeeeeeeeeeeeeeeeeeeeeeeeeeeeeeeeeeeeeeeeeeee*@@&XXeeee",
"eee7O$@@oeeeeeeeeeeeeeeeeeeeeeeeeeeeeeeeeeeeeeeeeeeeeeeeeeeeeeeeeeeeeee@X&@X2eee",
"eeeO@$XX-eeeeeeeeeeeeeeeeeeeeeeeeeeeeeeeeeeeeeeeeeeeeeeeeeeeeeeeeeeeeee-@X@@@eee",
"eeeX@@@XeeeeeeeeeeeeeeeeeeeeeeeeeeeeeeeeeeeeeeeeeeeeeeeeeeeeeeeeeeeeeeeeX@X@X,ee",
"ee*@@@@*eeeeeeeeeeeeeeeeeeeeeeeeeeeeeeeeeeeeeeeeeeeeeeeeeeeeeeeeeeeeeeee-X@@@*ee",
"eeX$@@Oeeeeeeeeeeeeeeeeeeeeeeeeeeeeeeeeeeeeeeeeeeeeeeeeeeeeeeeeeeeeeeeeee.X&XXee",
"eeXX@@Oeeeeeeeeeeeeee*%*-eeeeeeeeeeeeeeeeeeeeeeeeeeeeeee*%*eeeeeeeeeeeeeeO@o@Xee",
"e%@o$X:eeeeeeeeeeeeeX@@@Xoeeeeeeeeeeeeeeeeeeeeeeeeeeeee*X@@Xeeeeeeeeeeeee>X$XX*e",
"eo@o@Oeeeeeeeeeeeee=XX@o$X&eeeeeeeeeeeeeeeeeeeeeeeeeee=oX@@X*eeeeeeeeeeeeeO$@@Xe",
"e@@o@@eeeeeeeeeeeee&X&@X@XX:eeeeeeeeeeeeeeeeeeeeeeeeee&X@oo@oeeeeeeeeeeeee&@@@@e",
"eo@o@@eeeeeeeeeeeeeXX@o&&@o@eeeeeeeeeeeeeeeeeeeeeeeee-X@X@o@*eeeeeeeeeeeeeX@@@Xe",
"*@@XX:eeeeeeeeeeeee&o@o@@o&X*eeeeeeeeeeeeeeeeeeeeeeeeoo@@@@X%eeeeeeeeeeeee>O&&@*",
"*@@@O0eeeeeeeeeeeee&o@o&&@XooeeeeeeeeeeeeeeeeeeeeeeeoXo@@@$@%eeeeeeeeeeeeew.@$@*",
"*X@&X:eeeeeeeeeeeeeo&@o&&@&oXXeeeeeeeeeeeeeeeeeeeee*X@o&$@o@*eeeeeeeeeeeee>@$@@%",
"&X@o&eeeeeeeeeeeeeeoo@o@@@&o&X-eeeeeeeeeeeeeeeeeeeeX@X@@&@X@%eeeeeeeeeeeeee&@@@&",
"*X@@@eeeeeeeeeeeeeeo&@o@&@@X&oXeeeeeeeeeeeeeeeeeee%@@@@@@@@X%eeeeeeeeeeeeee@@@@-",
"-X&@@eeeeeeeeeeeeeeXo@&@@Xo@o&@Xeeeeeeeeeeeeeeeee%XX@@&$@&$X%eeeeeeeeeeeeee@@$X*",
"-X&o&eeeeeeeeeeeeeeoo@ooo@X&Xo@X-eeeeeeeeeeeeeeeeX@@@@@X@@&@%eeeeeeeeeeeeee&X$X*",
"*X@@@eeeeeeeeeeeeeeoo@&o&%X@&@ooXeeeeeeeeeeeeeee%X&oX@@@$@@@*eeeeeeeeeeeeee@@@@-",
"%X@@%eeeeeeeeeeeeeeXo@@&@;;@o@o&X@eeeeeeeeeeeee%X@o@@@X@@@@X%eeeeeeeeeeeeee&@@X%",
"*X@@o-eeeeeeeeeeeee@o@@@O8e X@oooo*eeeeeeeeeeeeXX&oo@$&@@@$@*eeeeeeeeeeeee*o&@@%",
"*X@@.qeeeeeeeeeeeeeoo@&@O6eXO&X&@oXeeeeeeeeeee@@o@X&@*%X@@@X%eeeeeeeeeeeee-$@X@*",
"*X@@X3eeeeeeeeeeeeeoo@&@ooee;Xo@@oX%eeeeeeeee*oo@@@oOeeX@@@@*eeeeeeeeeeeee-X&XX*",
"e@@@@Xeeeeeeeeeeeeeo&@@@&*eeeoooo@@X@eeeeeeeeX@@o@XX4e++@@o@%eeeeeeeeeeeee%@@@Xe",
"e@@@@oeeeeeeeeeeeeeoo@&@&@eee;o@@oX@Xeeeeeee&X&X@oOoeeX@@@X@%eeeeeeeeeeeeeoX@@Xe",
"eo@@@OeeeeeeeeeeeeeXo@@@&@eeee*X@oo@Xoeeeee-Xo@@@X*eeeXo@@o@*eeeeeeeeeeeeeOoo@@e",
"e%@@@X7eeeeeeeeeeee@o@@&&#eeeeeXo@oooX-eeeeX@$$@oX2eeeXo@@o@%eeeeeeeeeeee7OoX@*e",
"eeX$&@Oeeeeeeeeeeeeoo@&@&@eeeee,X@@X@@%eeeo@@oo@XoeeeeXo@@@X%eeeeeeeeeeee&@&XX-e",
"eeOX$X eeeeeeeeeeeeoo@@@&#eeeeee%XX&@@*ee*X@o@o@XeeeeeXo@@$@*eeeeeeeeeeeeXXooXee",
"ee%@@&O>eeeeeeeeeeeoo@@&$@eeeeeee%X@XXeeeXX&o&&O*eeeeeo@@@@X%eeeeeeeeeee-X&&X%ee",
"ee,@X&&XeeeeeeeeeeeXo@&@$#eeeeeeee&&*-ee&@@@XXX:eeeeeeoo@@@@*eeeeeeeeeeeoXX&X;ee",
"eeeXX@XXeeeeeeeeeeeoo@&@&@eeeeeeeeeeeee%@X&o&XXeeeeeeeX@@@$+%eeeeeeeeeeeO@X@@eee",
"eee-X&&X&eeeeeeeeeeoo@@@&#eeeeeeeeeeeee@@@X&&O*eeeeeeeXoX@@X%eeeeeeeeeeoX@@X-eee",
"eeeeXXo@Xeeeeeeeeeeoo@@&&@eeeeeeeeeeee*X@o@XX:eeeeeeeeoo$@@@*eeeeeeeeeeX$&&Xeeee",
"eeee*X&@o%eeeeeeeeeX@@@@&#eeeeeeeeeeeeX@X@@@XeeeeeeeeeXo$+&@%eeeeeeeee%@&XX*eeee",
"eeeeeoo@oX*eeeeeeeeoo@@&$@eeeeeeeeeeee&o@@oX>eeeeeeeee@o@@&+%eeeeeeee*oX&X@eeeee",
"eeeeeoX@&oXeeeeeeeeoo@@&$#eeeeeeeeeeee.XooX*eeeeeeeeeeXo@@&+*eeeeeeeeX@o@@oeeeee",
"eeeeeeX@oo@%eeeeeeeo&@&&&@eeeeeeeeeeeee1X%-eeeeeeeeeee@@@@@+%eeeeeee*X@@X@eeeeee",
"eeeeee*@oo&X%eeeeeeoo@&&$#eeeeeeeeeeeeeeeeeeeeeeeeeeee@@@@@+*eeeeee%X@o@X*eeeeee",
"eeeeeee*X@@XX=eeeeeoo@@@&@eeeeeeeeeeeeeeeeeeeeeeeeeeeeXo$@@X%eeeee-X$@oX*eeeeeee",
"eeeeeeeeX@@@ooeeeeeo&@&@&#eeeeeeeeeeeeeeeeeeeeeeeeeeeeoo@@@X%eeeeeooo@XXeeeeeeee",
"eeeeeeee-$oooooeeeeoX@@@$@eeeeeeeeeeeeeeeeeeeeeeeeeeeeoo@@$X*eeeeX@&oo@-eeeeeeee",
"eeeeeeeee*oo@oXoeee@@@&$$#eeeeeeeeeeeeeeeeeeeeeeeeeeeeXo@@@@%eee@@@X@X=eeeeeeeee",
"eeeeeeeeeeXoo@&XX-e@X@@@&@eeeeeeeeeeeeeeeeeeeeeeeeeeeeo@@@X@*eeX@@@$@oeeeeeeeeee",
"eeeeeeeeeee@X&oooX*oX@@@$#eeeeeeeeeeeeeeeeeeeeeeeeeeeeXo@@&@%*X@@@$X%eeeeeeeeeee",
"eeeeeeeeeeee;XX@ooXoo&@&$#eeeeeeeeeeeeeeeeeeeeeeeeeeeeoo@o@o@Xo@X@@*eeeeeeeeeeee",
"eeeeeeeeeeeeeXoo@@@@&o@o%%eeeeeeeeeeeeeeeeeeeeeeeeeeeeXo@o@@oo@o@XXeeeeeeeeeeeee",
"eeeeeeeeeeeeee*Xo&oo$@$X%@eeeeeeeeeeeeeeeeeeeeeeeeeeeeoo@o@@@@@@X*eeeeeeeeeeeeee",
"eeeeeeeeeeeeeee-oX&&@@&@%@eeeeeeeeeeeeeeeeeeeeeeeeeeeeXo&oo@@$XX*eeeeeeeeeeeeeee",
"eeeeeeeeeeeeeeeeeoXX@@@@&#eeeeeeeeeeeeeeeeeeeeeeeeeeeeOo&&@&@X&eeeeeeeeeeeeeeeee",
"eeeeeeeeeeeeeeeeee-&X@@@@eeeeeeeeeeeeeeeeeeeeeeeeeeeeeeoXXXX%-eeeeeeeeeeeeeeeeee",
"eeeeeeeeeeeeeeeeeeee%OO$;eeeeeeeeeeeeeeeeeeeeeeeeeeeeee<OOO&eeeeeeeeeeeeeeeeeeee",
"eeeeeeeeeeeeeeeeeeeee76eeeeeeeeeeeeeeeeeeeeeeeeeeeeeeeeee94eeeeeeeeeeeeeeeeeeeee",
"eeeeeeeeeeeeeeeeeeeeeeeeeeeeeeeeeeeeeeeeeeeeeeeeeeeeeeeeeeeeeeeeeeeeeeeeeeeeeeee",
"eeeeeeeeeeeeeeeeeeeeeeeeeeeeeeeeeeeeeeeeeeeeeeeeeeeeeeeeeeeeeeeeeeeeeeeeeeeeeeee"
};
