/* XPM */
static char *cc66830027544c53b513ea94b5738416[] = {
/* columns rows colors chars-per-pixel */
"64 64 62 1 ",
"  c #EF7D06",
". c #EF7D07",
"X c #EF7E07",
"o c #EF7D08",
"O c #EE7E08",
"+ c #EF7E08",
"@ c #EF7F08",
"# c #EE7E09",
"$ c #EF7E09",
"% c #EE7F09",
"& c #EF7F09",
"* c #EE7E0A",
"= c #EF7E0A",
"- c #EE7F0A",
"; c #EF7F0A",
": c #EE7F0B",
"> c #EF7F0B",
", c #EE7F0C",
"< c #EF7F0C",
"1 c #EE7F0D",
"2 c #F07D06",
"3 c #F07E07",
"4 c #F07E08",
"5 c #F07F08",
"6 c #F07E09",
"7 c #F07F09",
"8 c #EE800B",
"9 c #EF800B",
"0 c #ED800D",
"q c #EE800C",
"w c #EF800C",
"e c #EE800D",
"r c #EF800D",
"t c #EF810D",
"y c #EC810F",
"u c #ED810F",
"i c #EE800E",
"p c #EE810E",
"a c #EF810E",
"s c #EE800F",
"d c #EE810F",
"f c #EF810F",
"g c #EE820F",
"h c #ED8110",
"j c #ED8111",
"k c #EE8110",
"l c #EE8111",
"z c #ED8210",
"x c #ED8211",
"c c #EE8210",
"v c #EE8211",
"b c #ED8212",
"n c #EC8313",
"m c #ED8313",
"M c #EE8212",
"N c #EE8313",
"B c #EC8314",
"V c #ED8416",
"C c #ED8516",
"Z c #EE8516",
"A c #EC8619",
"S c None",
/* pixels */
"SSSSSSSSSSSSSSSSSSSSSSSSSSSSSSSSSSSSSSSSSSSSSSSSSSSSSSSSSSSSSSSS",
"SSSSSSSSSSSSSSSSSSSSSSSSSSSSSSSSSSSSSSSSSSSSSSSSSSSSSSSSSSSSSSSS",
"SSSSSSSSSSSSSSSSSSSSSSSSSSb<<+7bb7+qbqVSSSSSSSSSSSSSSSSSSSSSSSSS",
"SSSSSSSSSSSSSSSSSSSSSSqq++7+37+773++7+++qqSSSSSSSSSSSSSSSSSSSSSS",
"SSSSSSSSSSSSSSSSSSSb+++7779777+77+7+777.7++9bSSSSSSSSSSSSSSSSSSS",
"SSSSSSSSSSSSSSSSSb+++77977++++<q<<++3737797.++bSSSSSSSSSSSSSSSSS",
"SSSSSSSSSSSSSSSb+++797+++qbSSSSSSSSSSb<+++777+++bSSSSSSSSSSSSSSS",
"SSSSSSSSSSSSSSq+7777++qSSSSSSSSSSSSSSSSSSq+++79++qSSSSSSSSSSSSSS",
"SSSSSSSSSSSSb7.7977+bSSSSSSSSSSSSSSSSSSSSSSb<+++339bSSSSSSSSSSSS",
"SSSSSSSSSSSb737+++bSSSSSSSSSSSSSSSSSSSSSSSSSSb++993.bSSSSSSSSSSS",
"SSSSSSSSSSq+7+7.qSSSSSSSSSSSSSSSSSSSSSSSSSSSSSSq33933qSSSSSSSSSS",
"SSSSSSSSSq+7+7+SSSSSSSSSSSSSSSSSSSSSSSSSSSSSSSSSS+.9+.qSSSSSSSSS",
"SSSSSSSSq+9+++SSSSSSSSSSSSSSSSSSSSSSSSSSSSSSSSSSSS+++9.qSSSSSSSS",
"SSSSSSSb+37+qSSSSSSSSSSSSSSSSSSSSSSSSSSSSSSSSSSSSSSq+7++bSSSSSSS",
"SSSSSSS+7+7+SSSSSSSSSSSSSSSSSSSSSSSSSSSSSSSSSSSSSSSSq+7+3SSSSSSS",
"SSSSSS+7+7qSSSSSSSSSSSSSSSSSSSSSSSSSSSSSSSSSSSSSSSSSS++77+SSSSSS",
"SSSSS<.93+SSSSSSSSSSSSSSSSSSSSSSSSSSSSSSSSSSSSSSSSSSSS+77.qSSSSS",
"SSSSS73+3bSSSSSSSSSSSSSSSSSSSSSSSSSSSSSSSSSSSSSSSSSSSSb77++SSSSS",
"SSSS+39.qSSSSSSSSSSSSSSSSSSSSSSSSSSSSSSSSSSSSSSSSSSSSSSq++++SSSS",
"SSSb+739SSSSSSSSSSSSSSSSSSSSSSSSSSSSSSSSSSSSSSSSSSSSSSSS++7+bSSS",
"SSS<77+qSSSSSSSSSSSSSSSSSSSSSSSSSSSSSSSSSSSSSSSSSSSSSSSSb++++SSS",
"SSS+77<SSSSSSSSSSSSSSSSSSSSSSSSSSSSSSSSSSSSSSSSSSSSSSSSSS<+7+SSS",
"SSq77+bSSSSSSSSSSSSSSSSSSSSSSSSSSSSSSSSSSSSSSSSSSSSSSSSSSq+77qSS",
"SS+377SSSSSSSSSSSSSSSSSSSSSSSSSSSSSSSSSSSSSSSSSSSSSSSSSSSS++7+SS",
"Sb37.<SSSSSSSSSSSSSSSSSSSSSSSSSSSSSSSSSSSSSSSSSSSSSSSSSSSS<+7+bS",
"Sq+77bSSSSSSSSSSq<<qSSSSSSSSSSSSSSSSSSSSSSSSS<<qSSSSSSSSSSb+77qS",
"S+737SSSSSSSSSSb+7739SSSSSSSSSSSSSSSSSSSSSSS++7.bSSSSSSSSSS++77S",
"S+377SSSSSSSSSS++7+7++SSSSSSSSSSSSSSSSSSSSS<+7+7qSSSSSSSSSS<+7+S",
"V777qSSSSSSSSSS++7++97bSSSSSSSSSSSSSSSSSSSb+7++3qSSSSSSSSSSq+7+b",
"q+7+bSSSSSSSSSS++7+7+7<SSSSSSSSSSSSSSSSSSS7+7++7bSSSSSSSSSSq+77f",
"q+++SSSSSSSSSSS++7+7+7++SSSSSSSSSSSSSSSSSq++7+77qSSSSSSSSSSS773q",
"<+97SSSSSSSSSSS++7+7+7++bSSSSSSSSSSSSSSSS++7+797qSSSSSSSSSSS+73f",
"b.9+SSSSSSSSSSS+73+9++7.9SSSSSSSSSSSSSSS+39+9793qSSSSSSSSSSS993N",
"V37+SSSSSSSSSSS++9++77+7+qSSSSSSSSSSSSSq.93337+3qSSSSSSSSSSS993N",
"Z.77SSSSSSSSSSS++7+7++97++bSSSSSSSSSSSS+939+77+3bSSSSSSSSSSS393Z",
"q.77SSSSSSSSSSS++3+7A9++77+SSSSSSSSSSS+7+77+.993qSSSSSSSSSSS933f",
"q+7+SSSSSSSSSSS++773SS+7.+7<SSSSSSSSSq+7+7+<+7+7qSSSSSSSSSSS373f",
"q77+bSSSSSSSSSS++97+bSq++77+bSSSSSSSS+7+++<S+7+7bSSSSSSSSSSb.93f",
"b+7+qSSSSSSSSSS++77+nSS9++++<SSSSSSS+7+7++SS+7+7qSSSSSSSSSSq+7.b",
"S+77qSSSSSSSSSS++77+VSSb+379+qSSSSS<+7+77bSS+7+3qSSSSSSSSSS++73S",
"S777+SSSSSSSSSS++77+VSSS<+++7+SSSSS++77+qSSS+7+7bSSSSSSSSSS++77S",
"Sq+7+SSSSSSSSSS++77+bSSSS7+7++qSSS<+77.+SSSS+797qSSSSSSSSSS+97qS",
"Sq77+qSSSSSSSSS++77+VSSSSb+393+SSq+7+73bSSSS+7+3qSSSSSSSSSq+7+qS",
"SS+77<SSSSSSSSS++77+nSSSSSq.7.qSS++77+9SSSSS+7+7bSSSSSSSSSq777SS",
"SSq+7+SSSSSSSSS++37+BSSSSSSbqbSS<+97++SSSSSS+7+7qSSSSSSSSS+77+SS",
"SSb+7+<SSSSSSSS++77+BSSSSSSSSSSq++++3bSSSSSS+7+7qSSSSSSSS++7+qSS",
"SSS+77+SSSSSSSS++993VSSSSSSSSSS+77++<SSSSSSS+7+3bSSSSSSSS++7+SSS",
"SSSq++++SSSSSSS.77+.nSSSSSSSSSq.+97+SSSSSSSS+797fSSSSSSS<++7bSSS",
"SSSS+7++bSSSSSS++97+VSSSSSSSSSq777+bSSSSSSSS+7+7qSSSSSSb77++SSSS",
"SSSSq+77+SSSSSS++373VSSSSSSSSSSq++qSSSSSSSSS+7+7qSSSSSS+37+qSSSS",
"SSSSS+777<SSSSS++79+nSSSSSSSSSSSSSSSSSSSSSSS+7+7qSSSSS+37++SSSSS",
"SSSSSS+9++qSSSS+737+nSSSSSSSSSSSSSSSSSSSSSSS+7+7bSSSSb+7++SSSSSS",
"SSSSSSq+77+qSSS7+39.VSSSSSSSSSSSSSSSSSSSSSSS+7+7fSSSb3+97bSSSSSS",
"SSSSSSS+++7+bSS+3973nSSSSSSSSSSSSSSSSSSSSSSS+7+7qSSb+39++SSSSSSS",
"SSSSSSSS+++7+bS.93+.nSSSSSSSSSSSSSSSSSSSSSSS+7+7qSf37+7+SSSSSSSS",
"SSSSSSSSS++7++q+.79.VSSSSSSSSSSSSSSSSSSSSSSS+7+7bb33+7+SSSSSSSSS",
"SSSSSSSSSS<+7+++.77+VSSSSSSSSSSSSSSSSSSSSSSS+7++7++77+SSSSSSSSSS",
"SSSSSSSSSSS<.777777+VSSSSSSSSSSSSSSSSSSSSSSS+7+7+77+<SSSSSSSSSSS",
"SSSSSSSSSSSSq.37++79nSSSSSSSSSSSSSSSSSSSSSSS+7+7773+SSSSSSSSSSSS",
"SSSSSSSSSSSSSb+.7+7+SSSSSSSSSSSSSSSSSSSSSSSS+7+97+bSSSSSSSSSSSSS",
"SSSSSSSSSSSSSSS973.+SSSSSSSSSSSSSSSSSSSSSSSS+333<SSSSSSSSSSSSSSS",
"SSSSSSSSSSSSSSSSqbqSSSSSSSSSSSSSSSSSSSSSSSSSSbqbSSSSSSSSSSSSSSSS",
"SSSSSSSSSSSSSSSSSSSSSSSSSSSSSSSSSSSSSSSSSSSSSSSSSSSSSSSSSSSSSSSS",
"SSSSSSSSSSSSSSSSSSSSSSSSSSSSSSSSSSSSSSSSSSSSSSSSSSSSSSSSSSSSSSSS"
};
