/* XPM */
static char *e954b6fb8e9d4956e6df1accf42fdd9a[] = {
/* columns rows colors chars-per-pixel */
"32 32 21 1 ",
"  c #EF7E08",
". c #EF7E09",
"X c #EF7F09",
"o c #EE7F0A",
"O c #EF7F0A",
"+ c #EE7F0B",
"@ c #EF7F0B",
"# c #EE7F0C",
"$ c #EF7F0C",
"% c #F07E08",
"& c #F07F08",
"* c #F07F09",
"= c #EF800B",
"- c #EE800C",
"; c #EF800C",
": c #EE800D",
"> c #EF800D",
", c #EE810E",
"< c #EF810E",
"1 c #EE810F",
"2 c None",
/* pixels */
"22222222222222222222222222222222",
"222222222222-O%--=%;222222222222",
"222222222-OO%OOOOO-%O $222222222",
"2222222-  OO22222222O OO-2222222",
"222222OOO$222222222222-O%O222222",
"22222O%O2222222222222222OOO22222",
"2222OOO222222222222222222O O2222",
"222O%O22222222222222222222OOO222",
"22-OO2222222222222222222222OOO22",
"22OO222222222222222222222222O 22",
"2O O222222222222222222222222O -2",
"2OO22222222222222222222222222OO2",
"2OO222222-2222222222222222222%O2",
"$ -22222OOO22222222222%O22222-%-",
"OO222222 % 2222222222-%O222222OO",
"OO222222 %%O22222222- %O222222OO",
"- 222222O%%%O2222222 %% 222222O-",
"-O222222 %-%O222222O%  =222222%;",
"=%222222 O2O%O2222-O%O %222222OO",
"OO222222  22O%O222O%-2 -222222OO",
"-OO22222  22-%%22O%O22  22222-%-",
"2%O22222 O222%O22O%-22 O22222OO2",
"2OO22222 %222222O%O222O 22222 O2",
"22OO2222 -22222=%O2222 O2222OO22",
"22OO2222  22222-O-2222%-2222OO22",
"222OO222 O222222222222  222%O222",
"222O O22OO222222222222 O22%%$222",
"2222OOOO%%222222222222O%--%-2222",
"22222OO %-222222222222O% OO22222",
"222222OO%%222222222222 %O$222222",
"22222222--222222222222-O22222222",
"22222222222222222222222222222222"
};
